<svg width="25" height="25" viewBox="0 0 25 25" fill="none" xmlns="http://www.w3.org/2000/svg">
<rect width="25" height="25" rx="5" fill="#282A33"/>
<path d="M7.58143 20H4.26429V9.31762H7.58143V20ZM5.92107 7.86044C4.86036 7.86044 4 6.98185 4 5.92111C4 5.4116 4.2024 4.92296 4.56267 4.56268C4.92294 4.2024 5.41157 4 5.92107 4C6.43057 4 6.9192 4.2024 7.27947 4.56268C7.63974 4.92296 7.84214 5.4116 7.84214 5.92111C7.84214 6.98185 6.98143 7.86044 5.92107 7.86044ZM19.9964 20H16.6864V14.7999C16.6864 13.5606 16.6614 11.9712 14.9618 11.9712C13.2371 11.9712 12.9729 13.3177 12.9729 14.7106V20H9.65929V9.31762H12.8407V10.7748H12.8871C13.33 9.93549 14.4118 9.04976 16.0257 9.04976C19.3829 9.04976 20 11.2605 20 14.132V20H19.9964Z" fill="white"/>
</svg>
