<svg xmlns="http://www.w3.org/2000/svg" width="25" height="25" fill="none" viewBox="0 0 25 25">
	<rect width="25" height="25" fill="#282A33" rx="5"/>
	<path fill="#fff" d="M5.222 12.088c1.503-.827 3.18-1.518 4.748-2.213 2.697-1.137 5.405-2.255 8.14-3.296.532-.177 1.488-.35 1.582.438-.052 1.116-.263 2.226-.408 3.335-.367 2.44-.792 4.873-1.207 7.305-.143.81-1.157 1.23-1.807.711-1.56-1.054-3.133-2.098-4.674-3.177-.505-.513-.037-1.249.414-1.615 1.286-1.267 2.649-2.343 3.867-3.675.329-.794-.642-.125-.963.08-1.76 1.212-3.476 2.5-5.331 3.565-.948.522-2.052.076-3-.215-.849-.352-2.094-.706-1.361-1.242Z"/>
</svg>
